<svg width="662" height="601" viewBox="0 0 662 601" fill="none" xmlns="http://www.w3.org/2000/svg">
<rect width="662" height="601" fill="white"/>
<rect x="149" y="118" width="365" height="365" rx="12" fill="#0F89FA"/>
<path d="M479 187.318V243.909C479 246.911 477.805 249.79 475.677 251.912C473.549 254.035 470.663 255.227 467.654 255.227C464.645 255.227 461.759 254.035 459.631 251.912C457.503 249.79 456.308 246.911 456.308 243.909V198.636H410.923C407.914 198.636 405.028 197.444 402.9 195.321C400.772 193.199 399.577 190.32 399.577 187.318C399.577 184.316 400.772 181.438 402.9 179.315C405.028 177.192 407.914 176 410.923 176H467.654C470.663 176 473.549 177.193 475.677 179.315C477.804 181.438 479 184.316 479 187.318ZM252.077 402.364H206.692V357.091C206.692 354.089 205.497 351.21 203.369 349.088C201.241 346.965 198.355 345.773 195.346 345.773C192.337 345.773 189.451 346.965 187.323 349.088C185.195 351.21 184 354.089 184 357.091V413.682C184 416.684 185.196 419.562 187.323 421.685C189.451 423.807 192.337 425 195.346 425H252.077C255.086 425 257.972 423.808 260.1 421.685C262.228 419.562 263.423 416.684 263.423 413.682C263.423 410.68 262.228 407.801 260.1 405.679C257.972 403.556 255.086 402.364 252.077 402.364ZM467.654 345.773C464.645 345.773 461.759 346.965 459.631 349.088C457.503 351.21 456.308 354.089 456.308 357.091V402.364H410.923C407.914 402.364 405.028 403.556 402.9 405.679C400.772 407.801 399.577 410.68 399.577 413.682C399.577 416.684 400.772 419.562 402.9 421.685C405.028 423.808 407.914 425 410.923 425H467.654C470.663 425 473.549 423.807 475.677 421.685C477.804 419.562 479 416.684 479 413.682V357.091C479 354.089 477.804 351.21 475.677 349.088C473.549 346.965 470.663 345.773 467.654 345.773ZM195.346 255.227C198.355 255.227 201.241 254.035 203.369 251.912C205.497 249.79 206.692 246.911 206.692 243.909V198.636H252.077C255.086 198.636 257.972 197.444 260.1 195.321C262.228 193.199 263.423 190.32 263.423 187.318C263.423 184.316 262.228 181.438 260.1 179.315C257.972 177.192 255.086 176 252.077 176H195.346C192.337 176 189.451 177.193 187.323 179.315C185.196 181.438 184 184.316 184 187.318V243.909C184 246.911 185.196 249.79 187.323 251.912C189.451 254.035 192.337 255.227 195.346 255.227Z" fill="#F5F3F5"/>
<path d="M242 235.396C242 234.349 242.418 233.303 243.255 232.465C244.092 231.628 245.137 231 246.601 231C248.065 231 249.32 231.628 250.157 232.465C250.993 233.303 251.412 234.349 251.412 235.396C251.412 236.652 250.993 237.699 250.157 238.536C249.32 239.374 248.065 239.792 246.601 239.792C245.137 239.792 244.092 239.374 243.255 238.536C242.418 237.699 242 236.652 242 235.396ZM242 248.584C242 247.328 242.418 246.282 243.255 245.444C244.092 244.607 245.137 243.979 246.601 243.979C248.065 243.979 249.32 244.607 250.157 245.444C250.993 246.282 251.412 247.328 251.412 248.584C251.412 249.84 250.993 250.678 250.157 251.515C249.32 252.352 248.065 252.771 246.601 252.771C245.137 252.771 244.092 252.352 243.255 251.515C242.418 250.678 242 249.84 242 248.584ZM242 261.563C242 260.307 242.418 259.261 243.255 258.423C244.092 257.586 245.137 256.958 246.601 256.958C248.065 256.958 249.32 257.586 250.157 258.423C250.993 259.261 251.412 260.307 251.412 261.563C251.412 262.819 250.993 263.657 250.157 264.494C249.32 265.331 248.065 265.75 246.601 265.75C245.137 265.75 244.092 265.331 243.255 264.494C242.418 263.657 242 262.819 242 261.563ZM242 274.542C242 273.286 242.418 272.239 243.255 271.402C244.092 270.565 245.137 269.937 246.601 269.937C248.065 269.937 249.32 270.565 250.157 271.402C250.993 272.239 251.412 273.286 251.412 274.542C251.412 275.798 250.993 276.636 250.157 277.473C249.32 278.31 248.065 278.729 246.601 278.729C245.137 278.729 244.092 278.31 243.255 277.473C242.418 276.636 242 275.798 242 274.542ZM242 287.521C242 286.265 242.418 285.218 243.255 284.381C244.092 283.544 245.137 282.916 246.601 282.916C248.065 282.916 249.32 283.544 250.157 284.381C250.993 285.218 251.412 286.265 251.412 287.521C251.412 288.777 250.993 289.824 250.157 290.661C249.32 291.498 248.065 291.917 246.601 291.917C245.137 291.917 244.092 291.498 243.255 290.661C242.418 289.824 242 288.777 242 287.521ZM242 300.5C242 299.244 242.418 298.197 243.255 297.36C244.092 296.523 245.137 295.895 246.601 295.895C248.065 295.895 249.32 296.523 250.157 297.36C250.993 298.197 251.412 299.244 251.412 300.5C251.412 301.756 250.993 302.803 250.157 303.64C249.32 304.477 248.065 304.896 246.601 304.896C245.137 304.896 244.092 304.477 243.255 303.64C242.418 302.803 242 301.756 242 300.5ZM242 313.479C242 312.223 242.418 311.176 243.255 310.339C244.092 309.501 245.137 308.873 246.601 308.873C248.065 308.873 249.32 309.501 250.157 310.339C250.993 311.176 251.412 312.223 251.412 313.479C251.412 314.735 250.993 315.782 250.157 316.619C249.32 317.456 248.065 317.875 246.601 317.875C245.137 317.875 244.092 317.456 243.255 316.619C242.418 315.782 242 314.735 242 313.479ZM242 326.667C242 325.411 242.418 324.364 243.255 323.527C244.092 322.69 245.137 322.062 246.601 322.062C248.065 322.062 249.32 322.69 250.157 323.527C250.993 324.364 251.412 325.411 251.412 326.667C251.412 327.923 250.993 328.97 250.157 329.807C249.32 330.645 248.065 331.063 246.601 331.063C245.137 331.063 244.092 330.645 243.255 329.807C242.418 328.97 242 327.923 242 326.667ZM242 339.646C242 338.39 242.418 337.343 243.255 336.506C244.092 335.669 245.137 335.25 246.601 335.25C248.065 335.25 249.32 335.669 250.157 336.506C250.993 337.343 251.412 338.39 251.412 339.646C251.412 340.902 250.993 341.949 250.157 342.786C249.32 343.623 248.065 344.042 246.601 344.042C245.137 344.042 244.092 343.623 243.255 342.786C242.418 341.949 242 340.902 242 339.646ZM242 352.625C242 351.578 242.418 350.532 243.255 349.694C244.092 348.857 245.137 348.229 246.601 348.229C248.065 348.229 249.32 348.857 250.157 349.694C250.993 350.532 251.412 351.578 251.412 352.625C251.412 353.881 250.993 354.928 250.157 355.765C249.32 356.602 248.065 357.021 246.601 357.021C245.137 357.021 244.092 356.602 243.255 355.765C242.418 354.928 242 353.881 242 352.625ZM242 365.604C242 364.557 242.418 363.511 243.255 362.673C244.092 361.836 245.137 361.208 246.601 361.208C248.065 361.208 249.32 361.836 250.157 362.673C250.993 363.511 251.412 364.557 251.412 365.604C251.412 366.86 250.993 367.907 250.157 368.744C249.32 369.581 248.065 370 246.601 370C245.137 370 244.092 369.581 243.255 368.744C242.418 367.907 242 366.86 242 365.604ZM256.013 235.396C256.013 234.349 256.431 233.303 257.268 232.465C258.105 231.628 259.15 231 260.824 231C262.079 231 263.333 231.628 264.17 232.465C265.007 233.303 265.425 234.349 265.425 235.396C265.425 236.652 265.007 237.699 264.17 238.536C263.333 239.374 262.079 239.792 260.824 239.792C259.15 239.792 258.105 239.374 257.268 238.536C256.431 237.699 256.013 236.652 256.013 235.396ZM256.013 248.584C256.013 247.328 256.431 246.282 257.268 245.444C258.105 244.607 259.15 243.979 260.824 243.979C262.079 243.979 263.333 244.607 264.17 245.444C265.007 246.282 265.425 247.328 265.425 248.584C265.425 249.84 265.007 250.678 264.17 251.515C263.333 252.352 262.079 252.771 260.824 252.771C259.15 252.771 258.105 252.352 257.268 251.515C256.431 250.678 256.013 249.84 256.013 248.584ZM256.013 261.563C256.013 260.307 256.431 259.261 257.268 258.423C258.105 257.586 259.15 256.958 260.824 256.958C262.079 256.958 263.333 257.586 264.17 258.423C265.007 259.261 265.425 260.307 265.425 261.563C265.425 262.819 265.007 263.657 264.17 264.494C263.333 265.331 262.079 265.75 260.824 265.75C259.15 265.75 258.105 265.331 257.268 264.494C256.431 263.657 256.013 262.819 256.013 261.563ZM256.013 274.542C256.013 273.286 256.431 272.239 257.268 271.402C258.105 270.565 259.15 269.937 260.824 269.937C262.079 269.937 263.333 270.565 264.17 271.402C265.007 272.239 265.425 273.286 265.425 274.542C265.425 275.798 265.007 276.636 264.17 277.473C263.333 278.31 262.079 278.729 260.824 278.729C259.15 278.729 258.105 278.31 257.268 277.473C256.431 276.636 256.013 275.798 256.013 274.542ZM256.013 287.521C256.013 286.265 256.431 285.218 257.268 284.381C258.105 283.544 259.15 282.916 260.824 282.916C262.079 282.916 263.333 283.544 264.17 284.381C265.007 285.218 265.425 286.265 265.425 287.521C265.425 288.777 265.007 289.824 264.17 290.661C263.333 291.498 262.079 291.917 260.824 291.917C259.15 291.917 258.105 291.498 257.268 290.661C256.431 289.824 256.013 288.777 256.013 287.521ZM256.013 300.5C256.013 299.244 256.431 298.197 257.268 297.36C258.105 296.523 259.15 295.895 260.824 295.895C262.079 295.895 263.333 296.523 264.17 297.36C265.007 298.197 265.425 299.244 265.425 300.5C265.425 301.756 265.007 302.803 264.17 303.64C263.333 304.477 262.079 304.896 260.824 304.896C259.15 304.896 258.105 304.477 257.268 303.64C256.431 302.803 256.013 301.756 256.013 300.5ZM256.013 313.479C256.013 312.223 256.431 311.176 257.268 310.339C258.105 309.501 259.15 308.873 260.824 308.873C262.079 308.873 263.333 309.501 264.17 310.339C265.007 311.176 265.425 312.223 265.425 313.479C265.425 314.735 265.007 315.782 264.17 316.619C263.333 317.456 262.079 317.875 260.824 317.875C259.15 317.875 258.105 317.456 257.268 316.619C256.431 315.782 256.013 314.735 256.013 313.479ZM256.013 326.667C256.013 325.411 256.431 324.364 257.268 323.527C258.105 322.69 259.15 322.062 260.824 322.062C262.079 322.062 263.333 322.69 264.17 323.527C265.007 324.364 265.425 325.411 265.425 326.667C265.425 327.923 265.007 328.97 264.17 329.807C263.333 330.645 262.079 331.063 260.824 331.063C259.15 331.063 258.105 330.645 257.268 329.807C256.431 328.97 256.013 327.923 256.013 326.667ZM256.013 339.646C256.013 338.39 256.431 337.343 257.268 336.506C258.105 335.669 259.15 335.25 260.824 335.25C262.079 335.25 263.333 335.669 264.17 336.506C265.007 337.343 265.425 338.39 265.425 339.646C265.425 340.902 265.007 341.949 264.17 342.786C263.333 343.623 262.079 344.042 260.824 344.042C259.15 344.042 258.105 343.623 257.268 342.786C256.431 341.949 256.013 340.902 256.013 339.646ZM256.013 352.625C256.013 351.578 256.431 350.532 257.268 349.694C258.105 348.857 259.15 348.229 260.824 348.229C262.079 348.229 263.333 348.857 264.17 349.694C265.007 350.532 265.425 351.578 265.425 352.625C265.425 353.881 265.007 354.928 264.17 355.765C263.333 356.602 262.079 357.021 260.824 357.021C259.15 357.021 258.105 356.602 257.268 355.765C256.431 354.928 256.013 353.881 256.013 352.625ZM256.013 365.604C256.013 364.557 256.431 363.511 257.268 362.673C258.105 361.836 259.15 361.208 260.824 361.208C262.079 361.208 263.333 361.836 264.17 362.673C265.007 363.511 265.425 364.557 265.425 365.604C265.425 366.86 265.007 367.907 264.17 368.744C263.333 369.581 262.079 370 260.824 370C259.15 370 258.105 369.581 257.268 368.744C256.431 367.907 256.013 366.86 256.013 365.604ZM270.235 235.396C270.235 234.349 270.654 233.303 271.49 232.465C272.327 231.628 273.373 231 274.837 231C276.301 231 277.556 231.628 278.392 232.465C279.229 233.303 279.647 234.349 279.647 235.396C279.647 236.652 279.229 237.699 278.392 238.536C277.556 239.374 276.301 239.792 274.837 239.792C273.373 239.792 272.327 239.374 271.49 238.536C270.654 237.699 270.235 236.652 270.235 235.396ZM270.235 248.584C270.235 247.328 270.654 246.282 271.49 245.444C272.327 244.607 273.373 243.979 274.837 243.979C276.301 243.979 277.556 244.607 278.392 245.444C279.229 246.282 279.647 247.328 279.647 248.584C279.647 249.84 279.229 250.678 278.392 251.515C277.556 252.352 276.301 252.771 274.837 252.771C273.373 252.771 272.327 252.352 271.49 251.515C270.654 250.678 270.235 249.84 270.235 248.584ZM270.235 261.563C270.235 260.307 270.654 259.261 271.49 258.423C272.327 257.586 273.373 256.958 274.837 256.958C276.301 256.958 277.556 257.586 278.392 258.423C279.229 259.261 279.647 260.307 279.647 261.563C279.647 262.819 279.229 263.657 278.392 264.494C277.556 265.331 276.301 265.75 274.837 265.75C273.373 265.75 272.327 265.331 271.49 264.494C270.654 263.657 270.235 262.819 270.235 261.563ZM270.235 274.542C270.235 273.286 270.654 272.239 271.49 271.402C272.327 270.565 273.373 269.937 274.837 269.937C276.301 269.937 277.556 270.565 278.392 271.402C279.229 272.239 279.647 273.286 279.647 274.542C279.647 275.798 279.229 276.636 278.392 277.473C277.556 278.31 276.301 278.729 274.837 278.729C273.373 278.729 272.327 278.31 271.49 277.473C270.654 276.636 270.235 275.798 270.235 274.542ZM270.235 287.521C270.235 286.265 270.654 285.218 271.49 284.381C272.327 283.544 273.373 282.916 274.837 282.916C276.301 282.916 277.556 283.544 278.392 284.381C279.229 285.218 279.647 286.265 279.647 287.521C279.647 288.777 279.229 289.824 278.392 290.661C277.556 291.498 276.301 291.917 274.837 291.917C273.373 291.917 272.327 291.498 271.49 290.661C270.654 289.824 270.235 288.777 270.235 287.521ZM270.235 300.5C270.235 299.244 270.654 298.197 271.49 297.36C272.327 296.523 273.373 295.895 274.837 295.895C276.301 295.895 277.556 296.523 278.392 297.36C279.229 298.197 279.647 299.244 279.647 300.5C279.647 301.756 279.229 302.803 278.392 303.64C277.556 304.477 276.301 304.896 274.837 304.896C273.373 304.896 272.327 304.477 271.49 303.64C270.654 302.803 270.235 301.756 270.235 300.5ZM270.235 313.479C270.235 312.223 270.654 311.176 271.49 310.339C272.327 309.501 273.373 308.873 274.837 308.873C276.301 308.873 277.556 309.501 278.392 310.339C279.229 311.176 279.647 312.223 279.647 313.479C279.647 314.735 279.229 315.782 278.392 316.619C277.556 317.456 276.301 317.875 274.837 317.875C273.373 317.875 272.327 317.456 271.49 316.619C270.654 315.782 270.235 314.735 270.235 313.479ZM270.235 326.667C270.235 325.411 270.654 324.364 271.49 323.527C272.327 322.69 273.373 322.062 274.837 322.062C276.301 322.062 277.556 322.69 278.392 323.527C279.229 324.364 279.647 325.411 279.647 326.667C279.647 327.923 279.229 328.97 278.392 329.807C277.556 330.645 276.301 331.063 274.837 331.063C273.373 331.063 272.327 330.645 271.49 329.807C270.654 328.97 270.235 327.923 270.235 326.667ZM270.235 339.646C270.235 338.39 270.654 337.343 271.49 336.506C272.327 335.669 273.373 335.25 274.837 335.25C276.301 335.25 277.556 335.669 278.392 336.506C279.229 337.343 279.647 338.39 279.647 339.646C279.647 340.902 279.229 341.949 278.392 342.786C277.556 343.623 276.301 344.042 274.837 344.042C273.373 344.042 272.327 343.623 271.49 342.786C270.654 341.949 270.235 340.902 270.235 339.646ZM270.235 352.625C270.235 351.578 270.654 350.532 271.49 349.694C272.327 348.857 273.373 348.229 274.837 348.229C276.301 348.229 277.556 348.857 278.392 349.694C279.229 350.532 279.647 351.578 279.647 352.625C279.647 353.881 279.229 354.928 278.392 355.765C277.556 356.602 276.301 357.021 274.837 357.021C273.373 357.021 272.327 356.602 271.49 355.765C270.654 354.928 270.235 353.881 270.235 352.625ZM270.235 365.604C270.235 364.557 270.654 363.511 271.49 362.673C272.327 361.836 273.373 361.208 274.837 361.208C276.301 361.208 277.556 361.836 278.392 362.673C279.229 363.511 279.647 364.557 279.647 365.604C279.647 366.86 279.229 367.907 278.392 368.744C277.556 369.581 276.301 370 274.837 370C273.373 370 272.327 369.581 271.49 368.744C270.654 367.907 270.235 366.86 270.235 365.604ZM283.837 235.396C283.837 234.349 284.255 233.303 285.091 232.465C285.928 231.628 286.974 231 288.438 231C289.902 231 291.157 231.628 291.993 232.465C292.83 233.303 293.248 234.349 293.248 235.396C293.248 236.652 292.83 237.699 291.993 238.536C291.157 239.374 289.902 239.792 288.438 239.792C286.974 239.792 285.928 239.374 285.091 238.536C284.255 237.699 283.837 236.652 283.837 235.396ZM283.837 248.584C283.837 247.328 284.255 246.282 285.091 245.444C285.928 244.607 286.974 243.979 288.438 243.979C289.902 243.979 291.157 244.607 291.993 245.444C292.83 246.282 293.248 247.328 293.248 248.584C293.248 249.84 292.83 250.678 291.993 251.515C291.157 252.352 289.902 252.771 288.438 252.771C286.974 252.771 285.928 252.352 285.091 251.515C284.255 250.678 283.837 249.84 283.837 248.584ZM283.837 261.563C283.837 260.307 284.255 259.261 285.091 258.423C285.928 257.586 286.974 256.958 288.438 256.958C289.902 256.958 291.157 257.586 291.993 258.423C292.83 259.261 293.248 260.307 293.248 261.563C293.248 262.819 292.83 263.657 291.993 264.494C291.157 265.331 289.902 265.75 288.438 265.75C286.974 265.75 285.928 265.331 285.091 264.494C284.255 263.657 283.837 262.819 283.837 261.563ZM283.837 274.542C283.837 273.286 284.255 272.239 285.091 271.402C285.928 270.565 286.974 269.937 288.438 269.937C289.902 269.937 291.157 270.565 291.993 271.402C292.83 272.239 293.248 273.286 293.248 274.542C293.248 275.798 292.83 276.636 291.993 277.473C291.157 278.31 289.902 278.729 288.438 278.729C286.974 278.729 285.928 278.31 285.091 277.473C284.255 276.636 283.837 275.798 283.837 274.542ZM283.837 287.521C283.837 286.265 284.255 285.218 285.091 284.381C285.928 283.544 286.974 282.916 288.438 282.916C289.902 282.916 291.157 283.544 291.993 284.381C292.83 285.218 293.248 286.265 293.248 287.521C293.248 288.777 292.83 289.824 291.993 290.661C291.157 291.498 289.902 291.917 288.438 291.917C286.974 291.917 285.928 291.498 285.091 290.661C284.255 289.824 283.837 288.777 283.837 287.521ZM297.85 248.584C297.85 247.328 298.268 246.282 299.105 245.444C299.941 244.607 300.987 243.979 302.66 243.979C303.915 243.979 305.17 244.607 306.007 245.444C306.843 246.282 307.261 247.328 307.261 248.584C307.261 249.84 306.843 250.678 306.007 251.515C305.17 252.352 303.915 252.771 302.66 252.771C300.987 252.771 299.941 252.352 299.105 251.515C298.268 250.678 297.85 249.84 297.85 248.584ZM297.85 261.563C297.85 260.307 298.268 259.261 299.105 258.423C299.941 257.586 300.987 256.958 302.66 256.958C303.915 256.958 305.17 257.586 306.007 258.423C306.843 259.261 307.261 260.307 307.261 261.563C307.261 262.819 306.843 263.657 306.007 264.494C305.17 265.331 303.915 265.75 302.66 265.75C300.987 265.75 299.941 265.331 299.105 264.494C298.268 263.657 297.85 262.819 297.85 261.563ZM297.85 274.542C297.85 273.286 298.268 272.239 299.105 271.402C299.941 270.565 300.987 269.937 302.66 269.937C303.915 269.937 305.17 270.565 306.007 271.402C306.843 272.239 307.261 273.286 307.261 274.542C307.261 275.798 306.843 276.636 306.007 277.473C305.17 278.31 303.915 278.729 302.66 278.729C300.987 278.729 299.941 278.31 299.105 277.473C298.268 276.636 297.85 275.798 297.85 274.542ZM297.85 287.521C297.85 286.265 298.268 285.218 299.105 284.381C299.941 283.544 300.987 282.916 302.66 282.916C303.915 282.916 305.17 283.544 306.007 284.381C306.843 285.218 307.261 286.265 307.261 287.521C307.261 288.777 306.843 289.824 306.007 290.661C305.17 291.498 303.915 291.917 302.66 291.917C300.987 291.917 299.941 291.498 299.105 290.661C298.268 289.824 297.85 288.777 297.85 287.521ZM297.85 300.5C297.85 299.244 298.268 298.197 299.105 297.36C299.941 296.523 300.987 295.895 302.66 295.895C303.915 295.895 305.17 296.523 306.007 297.36C306.843 298.197 307.261 299.244 307.261 300.5C307.261 301.756 306.843 302.803 306.007 303.64C305.17 304.477 303.915 304.896 302.66 304.896C300.987 304.896 299.941 304.477 299.105 303.64C298.268 302.803 297.85 301.756 297.85 300.5ZM312.072 261.563C312.072 260.307 312.49 259.261 313.327 258.423C314.163 257.586 315.209 256.958 316.673 256.958C318.137 256.958 319.392 257.586 320.229 258.423C321.065 259.261 321.484 260.307 321.484 261.563C321.484 262.819 321.065 263.657 320.229 264.494C319.392 265.331 318.137 265.75 316.673 265.75C315.209 265.75 314.163 265.331 313.327 264.494C312.49 263.657 312.072 262.819 312.072 261.563ZM312.072 274.542C312.072 273.286 312.49 272.239 313.327 271.402C314.163 270.565 315.209 269.937 316.673 269.937C318.137 269.937 319.392 270.565 320.229 271.402C321.065 272.239 321.484 273.286 321.484 274.542C321.484 275.798 321.065 276.636 320.229 277.473C319.392 278.31 318.137 278.729 316.673 278.729C315.209 278.729 314.163 278.31 313.327 277.473C312.49 276.636 312.072 275.798 312.072 274.542ZM312.072 287.521C312.072 286.265 312.49 285.218 313.327 284.381C314.163 283.544 315.209 282.916 316.673 282.916C318.137 282.916 319.392 283.544 320.229 284.381C321.065 285.218 321.484 286.265 321.484 287.521C321.484 288.777 321.065 289.824 320.229 290.661C319.392 291.498 318.137 291.917 316.673 291.917C315.209 291.917 314.163 291.498 313.327 290.661C312.49 289.824 312.072 288.777 312.072 287.521ZM312.072 300.5C312.072 299.244 312.49 298.197 313.327 297.36C314.163 296.523 315.209 295.895 316.673 295.895C318.137 295.895 319.392 296.523 320.229 297.36C321.065 298.197 321.484 299.244 321.484 300.5C321.484 301.756 321.065 302.803 320.229 303.64C319.392 304.477 318.137 304.896 316.673 304.896C315.209 304.896 314.163 304.477 313.327 303.64C312.49 302.803 312.072 301.756 312.072 300.5ZM312.072 313.479C312.072 312.223 312.49 311.176 313.327 310.339C314.163 309.501 315.209 308.873 316.673 308.873C318.137 308.873 319.392 309.501 320.229 310.339C321.065 311.176 321.484 312.223 321.484 313.479C321.484 314.735 321.065 315.782 320.229 316.619C319.392 317.456 318.137 317.875 316.673 317.875C315.209 317.875 314.163 317.456 313.327 316.619C312.49 315.782 312.072 314.735 312.072 313.479ZM326.294 274.542C326.294 273.286 326.713 272.239 327.549 271.402C328.386 270.565 329.431 269.937 331.105 269.937C332.36 269.937 333.614 270.565 334.451 271.402C335.288 272.239 335.706 273.286 335.706 274.542C335.706 275.798 335.288 276.636 334.451 277.473C333.614 278.31 332.36 278.729 331.105 278.729C329.431 278.729 328.386 278.31 327.549 277.473C326.713 276.636 326.294 275.798 326.294 274.542ZM326.294 287.521C326.294 286.265 326.713 285.218 327.549 284.381C328.386 283.544 329.431 282.916 331.105 282.916C332.36 282.916 333.614 283.544 334.451 284.381C335.288 285.218 335.706 286.265 335.706 287.521C335.706 288.777 335.288 289.824 334.451 290.661C333.614 291.498 332.36 291.917 331.105 291.917C329.431 291.917 328.386 291.498 327.549 290.661C326.713 289.824 326.294 288.777 326.294 287.521ZM326.294 300.5C326.294 299.244 326.713 298.197 327.549 297.36C328.386 296.523 329.431 295.895 331.105 295.895C332.36 295.895 333.614 296.523 334.451 297.36C335.288 298.197 335.706 299.244 335.706 300.5C335.706 301.756 335.288 302.803 334.451 303.64C333.614 304.477 332.36 304.896 331.105 304.896C329.431 304.896 328.386 304.477 327.549 303.64C326.713 302.803 326.294 301.756 326.294 300.5ZM326.294 313.479C326.294 312.223 326.713 311.176 327.549 310.339C328.386 309.501 329.431 308.873 331.105 308.873C332.36 308.873 333.614 309.501 334.451 310.339C335.288 311.176 335.706 312.223 335.706 313.479C335.706 314.735 335.288 315.782 334.451 316.619C333.614 317.456 332.36 317.875 331.105 317.875C329.431 317.875 328.386 317.456 327.549 316.619C326.713 315.782 326.294 314.735 326.294 313.479ZM326.294 326.667C326.294 325.411 326.713 324.364 327.549 323.527C328.386 322.69 329.431 322.062 331.105 322.062C332.36 322.062 333.614 322.69 334.451 323.527C335.288 324.364 335.706 325.411 335.706 326.667C335.706 327.923 335.288 328.97 334.451 329.807C333.614 330.645 332.36 331.063 331.105 331.063C329.431 331.063 328.386 330.645 327.549 329.807C326.713 328.97 326.294 327.923 326.294 326.667ZM340.516 287.521C340.516 286.265 340.935 285.218 341.771 284.381C342.608 283.544 343.654 282.916 345.118 282.916C346.582 282.916 347.837 283.544 348.673 284.381C349.51 285.218 349.928 286.265 349.928 287.521C349.928 288.777 349.51 289.824 348.673 290.661C347.837 291.498 346.582 291.917 345.118 291.917C343.654 291.917 342.608 291.498 341.771 290.661C340.935 289.824 340.516 288.777 340.516 287.521ZM340.516 300.5C340.516 299.244 340.935 298.197 341.771 297.36C342.608 296.523 343.654 295.895 345.118 295.895C346.582 295.895 347.837 296.523 348.673 297.36C349.51 298.197 349.928 299.244 349.928 300.5C349.928 301.756 349.51 302.803 348.673 303.64C347.837 304.477 346.582 304.896 345.118 304.896C343.654 304.896 342.608 304.477 341.771 303.64C340.935 302.803 340.516 301.756 340.516 300.5ZM340.516 313.479C340.516 312.223 340.935 311.176 341.771 310.339C342.608 309.501 343.654 308.873 345.118 308.873C346.582 308.873 347.837 309.501 348.673 310.339C349.51 311.176 349.928 312.223 349.928 313.479C349.928 314.735 349.51 315.782 348.673 316.619C347.837 317.456 346.582 317.875 345.118 317.875C343.654 317.875 342.608 317.456 341.771 316.619C340.935 315.782 340.516 314.735 340.516 313.479ZM340.516 326.667C340.516 325.411 340.935 324.364 341.771 323.527C342.608 322.69 343.654 322.062 345.118 322.062C346.582 322.062 347.837 322.69 348.673 323.527C349.51 324.364 349.928 325.411 349.928 326.667C349.928 327.923 349.51 328.97 348.673 329.807C347.837 330.645 346.582 331.063 345.118 331.063C343.654 331.063 342.608 330.645 341.771 329.807C340.935 328.97 340.516 327.923 340.516 326.667ZM340.516 339.646C340.516 338.39 340.935 337.343 341.771 336.506C342.608 335.669 343.654 335.25 345.118 335.25C346.582 335.25 347.837 335.669 348.673 336.506C349.51 337.343 349.928 338.39 349.928 339.646C349.928 340.902 349.51 341.949 348.673 342.786C347.837 343.623 346.582 344.042 345.118 344.042C343.654 344.042 342.608 343.623 341.771 342.786C340.935 341.949 340.516 340.902 340.516 339.646ZM354.53 300.5C354.53 299.244 354.948 298.197 355.785 297.36C356.621 296.523 357.667 295.895 359.34 295.895C360.595 295.895 361.85 296.523 362.686 297.36C363.523 298.197 363.941 299.244 363.941 300.5C363.941 301.756 363.523 302.803 362.686 303.64C361.85 304.477 360.595 304.896 359.34 304.896C357.667 304.896 356.621 304.477 355.785 303.64C354.948 302.803 354.53 301.756 354.53 300.5ZM354.53 313.479C354.53 312.223 354.948 311.176 355.785 310.339C356.621 309.501 357.667 308.873 359.34 308.873C360.595 308.873 361.85 309.501 362.686 310.339C363.523 311.176 363.941 312.223 363.941 313.479C363.941 314.735 363.523 315.782 362.686 316.619C361.85 317.456 360.595 317.875 359.34 317.875C357.667 317.875 356.621 317.456 355.785 316.619C354.948 315.782 354.53 314.735 354.53 313.479ZM354.53 326.667C354.53 325.411 354.948 324.364 355.785 323.527C356.621 322.69 357.667 322.062 359.34 322.062C360.595 322.062 361.85 322.69 362.686 323.527C363.523 324.364 363.941 325.411 363.941 326.667C363.941 327.923 363.523 328.97 362.686 329.807C361.85 330.645 360.595 331.063 359.34 331.063C357.667 331.063 356.621 330.645 355.785 329.807C354.948 328.97 354.53 327.923 354.53 326.667ZM354.53 339.646C354.53 338.39 354.948 337.343 355.785 336.506C356.621 335.669 357.667 335.25 359.34 335.25C360.595 335.25 361.85 335.669 362.686 336.506C363.523 337.343 363.941 338.39 363.941 339.646C363.941 340.902 363.523 341.949 362.686 342.786C361.85 343.623 360.595 344.042 359.34 344.042C357.667 344.042 356.621 343.623 355.785 342.786C354.948 341.949 354.53 340.902 354.53 339.646ZM354.53 352.625C354.53 351.578 354.948 350.532 355.785 349.694C356.621 348.857 357.667 348.229 359.34 348.229C360.595 348.229 361.85 348.857 362.686 349.694C363.523 350.532 363.941 351.578 363.941 352.625C363.941 353.881 363.523 354.928 362.686 355.765C361.85 356.602 360.595 357.021 359.34 357.021C357.667 357.021 356.621 356.602 355.785 355.765C354.948 354.928 354.53 353.881 354.53 352.625ZM368.752 313.479C368.752 312.223 369.17 311.176 370.007 310.339C370.843 309.501 371.889 308.873 373.353 308.873C374.817 308.873 376.072 309.501 376.909 310.339C377.745 311.176 378.164 312.223 378.164 313.479C378.164 314.735 377.745 315.782 376.909 316.619C376.072 317.456 374.817 317.875 373.353 317.875C371.889 317.875 370.843 317.456 370.007 316.619C369.17 315.782 368.752 314.735 368.752 313.479ZM368.752 326.667C368.752 325.411 369.17 324.364 370.007 323.527C370.843 322.69 371.889 322.062 373.353 322.062C374.817 322.062 376.072 322.69 376.909 323.527C377.745 324.364 378.164 325.411 378.164 326.667C378.164 327.923 377.745 328.97 376.909 329.807C376.072 330.645 374.817 331.063 373.353 331.063C371.889 331.063 370.843 330.645 370.007 329.807C369.17 328.97 368.752 327.923 368.752 326.667ZM368.752 339.646C368.752 338.39 369.17 337.343 370.007 336.506C370.843 335.669 371.889 335.25 373.353 335.25C374.817 335.25 376.072 335.669 376.909 336.506C377.745 337.343 378.164 338.39 378.164 339.646C378.164 340.902 377.745 341.949 376.909 342.786C376.072 343.623 374.817 344.042 373.353 344.042C371.889 344.042 370.843 343.623 370.007 342.786C369.17 341.949 368.752 340.902 368.752 339.646ZM368.752 352.625C368.752 351.578 369.17 350.532 370.007 349.694C370.843 348.857 371.889 348.229 373.353 348.229C374.817 348.229 376.072 348.857 376.909 349.694C377.745 350.532 378.164 351.578 378.164 352.625C378.164 353.881 377.745 354.928 376.909 355.765C376.072 356.602 374.817 357.021 373.353 357.021C371.889 357.021 370.843 356.602 370.007 355.765C369.17 354.928 368.752 353.881 368.752 352.625ZM368.752 365.604C368.752 364.557 369.17 363.511 370.007 362.673C370.843 361.836 371.889 361.208 373.353 361.208C374.817 361.208 376.072 361.836 376.909 362.673C377.745 363.511 378.164 364.557 378.164 365.604C378.164 366.86 377.745 367.907 376.909 368.744C376.072 369.581 374.817 370 373.353 370C371.889 370 370.843 369.581 370.007 368.744C369.17 367.907 368.752 366.86 368.752 365.604ZM382.353 235.396C382.353 234.349 382.771 233.303 383.608 232.465C384.444 231.628 385.49 231 386.954 231C388.418 231 389.673 231.628 390.51 232.465C391.346 233.303 391.765 234.349 391.765 235.396C391.765 236.652 391.346 237.699 390.51 238.536C389.673 239.374 388.418 239.792 386.954 239.792C385.49 239.792 384.444 239.374 383.608 238.536C382.771 237.699 382.353 236.652 382.353 235.396ZM382.353 248.584C382.353 247.328 382.771 246.282 383.608 245.444C384.444 244.607 385.49 243.979 386.954 243.979C388.418 243.979 389.673 244.607 390.51 245.444C391.346 246.282 391.765 247.328 391.765 248.584C391.765 249.84 391.346 250.678 390.51 251.515C389.673 252.352 388.418 252.771 386.954 252.771C385.49 252.771 384.444 252.352 383.608 251.515C382.771 250.678 382.353 249.84 382.353 248.584ZM382.353 261.563C382.353 260.307 382.771 259.261 383.608 258.423C384.444 257.586 385.49 256.958 386.954 256.958C388.418 256.958 389.673 257.586 390.51 258.423C391.346 259.261 391.765 260.307 391.765 261.563C391.765 262.819 391.346 263.657 390.51 264.494C389.673 265.331 388.418 265.75 386.954 265.75C385.49 265.75 384.444 265.331 383.608 264.494C382.771 263.657 382.353 262.819 382.353 261.563ZM382.353 274.542C382.353 273.286 382.771 272.239 383.608 271.402C384.444 270.565 385.49 269.937 386.954 269.937C388.418 269.937 389.673 270.565 390.51 271.402C391.346 272.239 391.765 273.286 391.765 274.542C391.765 275.798 391.346 276.636 390.51 277.473C389.673 278.31 388.418 278.729 386.954 278.729C385.49 278.729 384.444 278.31 383.608 277.473C382.771 276.636 382.353 275.798 382.353 274.542ZM382.353 287.521C382.353 286.265 382.771 285.218 383.608 284.381C384.444 283.544 385.49 282.916 386.954 282.916C388.418 282.916 389.673 283.544 390.51 284.381C391.346 285.218 391.765 286.265 391.765 287.521C391.765 288.777 391.346 289.824 390.51 290.661C389.673 291.498 388.418 291.917 386.954 291.917C385.49 291.917 384.444 291.498 383.608 290.661C382.771 289.824 382.353 288.777 382.353 287.521ZM382.353 300.5C382.353 299.244 382.771 298.197 383.608 297.36C384.444 296.523 385.49 295.895 386.954 295.895C388.418 295.895 389.673 296.523 390.51 297.36C391.346 298.197 391.765 299.244 391.765 300.5C391.765 301.756 391.346 302.803 390.51 303.64C389.673 304.477 388.418 304.896 386.954 304.896C385.49 304.896 384.444 304.477 383.608 303.64C382.771 302.803 382.353 301.756 382.353 300.5ZM382.353 313.479C382.353 312.223 382.771 311.176 383.608 310.339C384.444 309.501 385.49 308.873 386.954 308.873C388.418 308.873 389.673 309.501 390.51 310.339C391.346 311.176 391.765 312.223 391.765 313.479C391.765 314.735 391.346 315.782 390.51 316.619C389.673 317.456 388.418 317.875 386.954 317.875C385.49 317.875 384.444 317.456 383.608 316.619C382.771 315.782 382.353 314.735 382.353 313.479ZM382.353 326.667C382.353 325.411 382.771 324.364 383.608 323.527C384.444 322.69 385.49 322.062 386.954 322.062C388.418 322.062 389.673 322.69 390.51 323.527C391.346 324.364 391.765 325.411 391.765 326.667C391.765 327.923 391.346 328.97 390.51 329.807C389.673 330.645 388.418 331.063 386.954 331.063C385.49 331.063 384.444 330.645 383.608 329.807C382.771 328.97 382.353 327.923 382.353 326.667ZM382.353 339.646C382.353 338.39 382.771 337.343 383.608 336.506C384.444 335.669 385.49 335.25 386.954 335.25C388.418 335.25 389.673 335.669 390.51 336.506C391.346 337.343 391.765 338.39 391.765 339.646C391.765 340.902 391.346 341.949 390.51 342.786C389.673 343.623 388.418 344.042 386.954 344.042C385.49 344.042 384.444 343.623 383.608 342.786C382.771 341.949 382.353 340.902 382.353 339.646ZM382.353 352.625C382.353 351.578 382.771 350.532 383.608 349.694C384.444 348.857 385.49 348.229 386.954 348.229C388.418 348.229 389.673 348.857 390.51 349.694C391.346 350.532 391.765 351.578 391.765 352.625C391.765 353.881 391.346 354.928 390.51 355.765C389.673 356.602 388.418 357.021 386.954 357.021C385.49 357.021 384.444 356.602 383.608 355.765C382.771 354.928 382.353 353.881 382.353 352.625ZM382.353 365.604C382.353 364.557 382.771 363.511 383.608 362.673C384.444 361.836 385.49 361.208 386.954 361.208C388.418 361.208 389.673 361.836 390.51 362.673C391.346 363.511 391.765 364.557 391.765 365.604C391.765 366.86 391.346 367.907 390.51 368.744C389.673 369.581 388.418 370 386.954 370C385.49 370 384.444 369.581 383.608 368.744C382.771 367.907 382.353 366.86 382.353 365.604ZM396.366 235.396C396.366 234.349 396.784 233.303 397.621 232.465C398.457 231.628 399.503 231 401.176 231C402.431 231 403.686 231.628 404.523 232.465C405.359 233.303 405.778 234.349 405.778 235.396C405.778 236.652 405.359 237.699 404.523 238.536C403.686 239.374 402.431 239.792 401.176 239.792C399.503 239.792 398.457 239.374 397.621 238.536C396.784 237.699 396.366 236.652 396.366 235.396ZM396.366 248.584C396.366 247.328 396.784 246.282 397.621 245.444C398.457 244.607 399.503 243.979 401.176 243.979C402.431 243.979 403.686 244.607 404.523 245.444C405.359 246.282 405.778 247.328 405.778 248.584C405.778 249.84 405.359 250.678 404.523 251.515C403.686 252.352 402.431 252.771 401.176 252.771C399.503 252.771 398.457 252.352 397.621 251.515C396.784 250.678 396.366 249.84 396.366 248.584ZM396.366 261.563C396.366 260.307 396.784 259.261 397.621 258.423C398.457 257.586 399.503 256.958 401.176 256.958C402.431 256.958 403.686 257.586 404.523 258.423C405.359 259.261 405.778 260.307 405.778 261.563C405.778 262.819 405.359 263.657 404.523 264.494C403.686 265.331 402.431 265.75 401.176 265.75C399.503 265.75 398.457 265.331 397.621 264.494C396.784 263.657 396.366 262.819 396.366 261.563ZM396.366 274.542C396.366 273.286 396.784 272.239 397.621 271.402C398.457 270.565 399.503 269.937 401.176 269.937C402.431 269.937 403.686 270.565 404.523 271.402C405.359 272.239 405.778 273.286 405.778 274.542C405.778 275.798 405.359 276.636 404.523 277.473C403.686 278.31 402.431 278.729 401.176 278.729C399.503 278.729 398.457 278.31 397.621 277.473C396.784 276.636 396.366 275.798 396.366 274.542ZM396.366 287.521C396.366 286.265 396.784 285.218 397.621 284.381C398.457 283.544 399.503 282.916 401.176 282.916C402.431 282.916 403.686 283.544 404.523 284.381C405.359 285.218 405.778 286.265 405.778 287.521C405.778 288.777 405.359 289.824 404.523 290.661C403.686 291.498 402.431 291.917 401.176 291.917C399.503 291.917 398.457 291.498 397.621 290.661C396.784 289.824 396.366 288.777 396.366 287.521ZM396.366 300.5C396.366 299.244 396.784 298.197 397.621 297.36C398.457 296.523 399.503 295.895 401.176 295.895C402.431 295.895 403.686 296.523 404.523 297.36C405.359 298.197 405.778 299.244 405.778 300.5C405.778 301.756 405.359 302.803 404.523 303.64C403.686 304.477 402.431 304.896 401.176 304.896C399.503 304.896 398.457 304.477 397.621 303.64C396.784 302.803 396.366 301.756 396.366 300.5ZM396.366 313.479C396.366 312.223 396.784 311.176 397.621 310.339C398.457 309.501 399.503 308.873 401.176 308.873C402.431 308.873 403.686 309.501 404.523 310.339C405.359 311.176 405.778 312.223 405.778 313.479C405.778 314.735 405.359 315.782 404.523 316.619C403.686 317.456 402.431 317.875 401.176 317.875C399.503 317.875 398.457 317.456 397.621 316.619C396.784 315.782 396.366 314.735 396.366 313.479ZM396.366 326.667C396.366 325.411 396.784 324.364 397.621 323.527C398.457 322.69 399.503 322.062 401.176 322.062C402.431 322.062 403.686 322.69 404.523 323.527C405.359 324.364 405.778 325.411 405.778 326.667C405.778 327.923 405.359 328.97 404.523 329.807C403.686 330.645 402.431 331.063 401.176 331.063C399.503 331.063 398.457 330.645 397.621 329.807C396.784 328.97 396.366 327.923 396.366 326.667ZM396.366 339.646C396.366 338.39 396.784 337.343 397.621 336.506C398.457 335.669 399.503 335.25 401.176 335.25C402.431 335.25 403.686 335.669 404.523 336.506C405.359 337.343 405.778 338.39 405.778 339.646C405.778 340.902 405.359 341.949 404.523 342.786C403.686 343.623 402.431 344.042 401.176 344.042C399.503 344.042 398.457 343.623 397.621 342.786C396.784 341.949 396.366 340.902 396.366 339.646ZM396.366 352.625C396.366 351.578 396.784 350.532 397.621 349.694C398.457 348.857 399.503 348.229 401.176 348.229C402.431 348.229 403.686 348.857 404.523 349.694C405.359 350.532 405.778 351.578 405.778 352.625C405.778 353.881 405.359 354.928 404.523 355.765C403.686 356.602 402.431 357.021 401.176 357.021C399.503 357.021 398.457 356.602 397.621 355.765C396.784 354.928 396.366 353.881 396.366 352.625ZM396.366 365.604C396.366 364.557 396.784 363.511 397.621 362.673C398.457 361.836 399.503 361.208 401.176 361.208C402.431 361.208 403.686 361.836 404.523 362.673C405.359 363.511 405.778 364.557 405.778 365.604C405.778 366.86 405.359 367.907 404.523 368.744C403.686 369.581 402.431 370 401.176 370C399.503 370 398.457 369.581 397.621 368.744C396.784 367.907 396.366 366.86 396.366 365.604ZM410.588 235.396C410.588 234.349 411.007 233.303 411.843 232.465C412.68 231.628 413.725 231 415.19 231C416.654 231 417.908 231.628 418.745 232.465C419.582 233.303 420 234.349 420 235.396C420 236.652 419.582 237.699 418.745 238.536C417.908 239.374 416.654 239.792 415.19 239.792C413.725 239.792 412.68 239.374 411.843 238.536C411.007 237.699 410.588 236.652 410.588 235.396ZM410.588 248.584C410.588 247.328 411.007 246.282 411.843 245.444C412.68 244.607 413.725 243.979 415.19 243.979C416.654 243.979 417.908 244.607 418.745 245.444C419.582 246.282 420 247.328 420 248.584C420 249.84 419.582 250.678 418.745 251.515C417.908 252.352 416.654 252.771 415.19 252.771C413.725 252.771 412.68 252.352 411.843 251.515C411.007 250.678 410.588 249.84 410.588 248.584ZM410.588 261.563C410.588 260.307 411.007 259.261 411.843 258.423C412.68 257.586 413.725 256.958 415.19 256.958C416.654 256.958 417.908 257.586 418.745 258.423C419.582 259.261 420 260.307 420 261.563C420 262.819 419.582 263.657 418.745 264.494C417.908 265.331 416.654 265.75 415.19 265.75C413.725 265.75 412.68 265.331 411.843 264.494C411.007 263.657 410.588 262.819 410.588 261.563ZM410.588 274.542C410.588 273.286 411.007 272.239 411.843 271.402C412.68 270.565 413.725 269.937 415.19 269.937C416.654 269.937 417.908 270.565 418.745 271.402C419.582 272.239 420 273.286 420 274.542C420 275.798 419.582 276.636 418.745 277.473C417.908 278.31 416.654 278.729 415.19 278.729C413.725 278.729 412.68 278.31 411.843 277.473C411.007 276.636 410.588 275.798 410.588 274.542ZM410.588 287.521C410.588 286.265 411.007 285.218 411.843 284.381C412.68 283.544 413.725 282.916 415.19 282.916C416.654 282.916 417.908 283.544 418.745 284.381C419.582 285.218 420 286.265 420 287.521C420 288.777 419.582 289.824 418.745 290.661C417.908 291.498 416.654 291.917 415.19 291.917C413.725 291.917 412.68 291.498 411.843 290.661C411.007 289.824 410.588 288.777 410.588 287.521ZM410.588 300.5C410.588 299.244 411.007 298.197 411.843 297.36C412.68 296.523 413.725 295.895 415.19 295.895C416.654 295.895 417.908 296.523 418.745 297.36C419.582 298.197 420 299.244 420 300.5C420 301.756 419.582 302.803 418.745 303.64C417.908 304.477 416.654 304.896 415.19 304.896C413.725 304.896 412.68 304.477 411.843 303.64C411.007 302.803 410.588 301.756 410.588 300.5ZM410.588 313.479C410.588 312.223 411.007 311.176 411.843 310.339C412.68 309.501 413.725 308.873 415.19 308.873C416.654 308.873 417.908 309.501 418.745 310.339C419.582 311.176 420 312.223 420 313.479C420 314.735 419.582 315.782 418.745 316.619C417.908 317.456 416.654 317.875 415.19 317.875C413.725 317.875 412.68 317.456 411.843 316.619C411.007 315.782 410.588 314.735 410.588 313.479ZM410.588 326.667C410.588 325.411 411.007 324.364 411.843 323.527C412.68 322.69 413.725 322.062 415.19 322.062C416.654 322.062 417.908 322.69 418.745 323.527C419.582 324.364 420 325.411 420 326.667C420 327.923 419.582 328.97 418.745 329.807C417.908 330.645 416.654 331.063 415.19 331.063C413.725 331.063 412.68 330.645 411.843 329.807C411.007 328.97 410.588 327.923 410.588 326.667ZM410.588 339.646C410.588 338.39 411.007 337.343 411.843 336.506C412.68 335.669 413.725 335.25 415.19 335.25C416.654 335.25 417.908 335.669 418.745 336.506C419.582 337.343 420 338.39 420 339.646C420 340.902 419.582 341.949 418.745 342.786C417.908 343.623 416.654 344.042 415.19 344.042C413.725 344.042 412.68 343.623 411.843 342.786C411.007 341.949 410.588 340.902 410.588 339.646ZM410.588 352.625C410.588 351.578 411.007 350.532 411.843 349.694C412.68 348.857 413.725 348.229 415.19 348.229C416.654 348.229 417.908 348.857 418.745 349.694C419.582 350.532 420 351.578 420 352.625C420 353.881 419.582 354.928 418.745 355.765C417.908 356.602 416.654 357.021 415.19 357.021C413.725 357.021 412.68 356.602 411.843 355.765C411.007 354.928 410.588 353.881 410.588 352.625ZM410.588 365.604C410.588 364.557 411.007 363.511 411.843 362.673C412.68 361.836 413.725 361.208 415.19 361.208C416.654 361.208 417.908 361.836 418.745 362.673C419.582 363.511 420 364.557 420 365.604C420 366.86 419.582 367.907 418.745 368.744C417.908 369.581 416.654 370 415.19 370C413.725 370 412.68 369.581 411.843 368.744C411.007 367.907 410.588 366.86 410.588 365.604Z" fill="white"/>
</svg>
